# xmcd
#
# Track frame offsets:
#	150
#	14836
#	27936
#	41541
#	54841
#
# Disc length: 972 seconds
#
# Revision: 1
# Processed by: cddbd v1.5.2PL0 Copyright (c) Steve Scherf et al.
# Submitted via: audiograbber 1.83.01
#
DISCID=3703ca05
DTITLE=Jewel - Sweet And Mild [HSN Exclusive Extra Acoustic]
DYEAR=2010
DGENRE=Country Pop
TTITLE0=No Good In Goodbye [Acoustic]
TTITLE1=Summer Home In Your Arms [Acoustic]
TTITLE2=Stay Here Forever [Acoustic]
TTITLE3=No More Heartaches [Acoustic]
TTITLE4=Satisfied [Acoustic]
EXTD=HSN Exclusive Extra Acoustic CD bundled with Sweet And Wild
EXTT0=
EXTT1=
EXTT2=
EXTT3=
EXTT4=
PLAYORDER=
